<?xml version="1.0" standalone="no"?>
<!DOCTYPE svg PUBLIC "-//W3C//DTD SVG 1.0//EN" "http://www.w3.org/TR/2001/REC-SVG-20010904/DTD/svg10.dtd">
<svg xmlns="http://www.w3.org/2000/svg" xmlns:xlink="http://www.w3.org/1999/xlink" version="1.1" width="100" height="100" viewBox="0 0 100 100" xml:space="preserve" xmlns:inkscape ="http://www.inkscape.org/namespaces/inkscape" >
<desc>CopyRight:SVG Design Editor;
configurationStart;Unit=smInches;Dpi=96;Division=4;Grid=True;Zoom=1;CanvasW=100;CanvasH=100;configurationEnd;</desc>


<defs xmlns:inkscape ="http://www.inkscape.org/namespaces/inkscape" >

</defs>




<g inkscape:label = "add_user_icon Default Layer" inkscape:groupmode = "layer" ><g id="group_3">
<path style="fill:Black;stroke:none; stroke-width:1" d="m720,-400l0,-120l-120,0l0,-80l120,0l0,-120l80,0l0,120l120,0l0,80l-120,0l0,120l-80,0zm-360,-80q-66,0 -113,-47q-47,-47 -47,-113q0,-66 47,-113q47,-47 113,-47q66,0 113,47q47,47 47,113q0,66 -47,113q-47,47 -113,47zm-320,320l0,-112q0,-34 17.5,-62.5q17.5,-28.5 46.5,-43.5q62,-31 126,-46.5q64,-15.5 130,-15.5q66,0 130,15.5q64,15.5 126,46.5q29,15 46.5,43.5q17.5,28.5 17.5,62.5l0,112l-640,0zm80,-80l480,0l0,-32q0,-11 -5.5,-20q-5.5,-9 -14.5,-14q-54,-27 -109,-40.5q-55,-13.5 -111,-13.5q-56,0 -111,13.5q-55,13.5 -109,40.5q-9,5 -14.5,14q-5.5,9 -5.5,20l0,32zm240,-320q33,0 56.5,-23.5q23.5,-23.5 23.5,-56.5q0,-33 -23.5,-56.5q-23.5,-23.5 -56.5,-23.5q-33,0 -56.5,23.5q-23.5,23.5 -23.5,56.5q0,33 23.5,56.5q23.5,23.5 56.5,23.5zm0,-80zm0,400z" stroke-linecap = "round" transform = "matrix(0.09,0,0,0.09,5.659996,92.37)" vector-effect="non-scaling-stroke" pen = "1,1" />
</g>
</g>
</svg>
