<?xml version="1.0" standalone="no"?>
<!DOCTYPE svg PUBLIC "-//W3C//DTD SVG 1.0//EN" "http://www.w3.org/TR/2001/REC-SVG-20010904/DTD/svg10.dtd">
<svg xmlns="http://www.w3.org/2000/svg" width="32" height="32" viewBox="0 0 24 24" xmlns:inkscape ="http://www.inkscape.org/namespaces/inkscape" >
<desc>CopyRight:SVG Design Editor;
configurationStart;Unit=smInches;Dpi=96;Division=4;Grid=True;Zoom=5;CanvasW=32;CanvasH=32;configurationEnd;</desc>
<g inkscape:label = "ascending_order_icon Default Layer" inkscape:groupmode = "layer" ><path style="fill:#000000;stroke:none; stroke-width:1" d="m17,3.25a0.75 0.75,0 0,1 0.75,0.75l0,13.75l1.65,-2.2a0.75 0.75,0 1,1 1.2,0.9l-3,4a0.75 0.75,0 0,1 -1.35,-0.45l0,-16a0.75 0.75,0 0,1 0.75,-0.75zm-9.75,2.75a0.75 0.75,0 0,1 0.75,-0.75l5,0a0.75 0.75,0 0,1 0,1.5l-5,0a0.75 0.75,0 0,1 -0.75,-0.75zm-2,5a0.75 0.75,0 0,1 0.75,-0.75l7,0a0.75 0.75,0 0,1 0,1.5l-7,0a0.75 0.75,0 0,1 -0.75,-0.75zm-2,5a0.75 0.75,0 0,1 0.75,-0.75l9,0a0.75 0.75,0 0,1 0,1.5l-9,0a0.75 0.75,0 0,1 -0.75,-0.75z" fill-rule = "evenodd" clip-rule = "evenodd" transform = "matrix(1,0,0,1,0,0)" vector-effect="non-scaling-stroke" pen = "1,1" />
</g>
</svg>
