<?xml version="1.0" standalone="no"?>
<!DOCTYPE svg PUBLIC "-//W3C//DTD SVG 1.0//EN" "http://www.w3.org/TR/2001/REC-SVG-20010904/DTD/svg10.dtd">
<svg xmlns="http://www.w3.org/2000/svg" xmlns:xlink="http://www.w3.org/1999/xlink" version="1.1" width="100" height="100" viewBox="0 0 100 100" xml:space="preserve" xmlns:inkscape ="http://www.inkscape.org/namespaces/inkscape" >
<desc>CopyRight:SVG Design Editor;
configurationStart;Unit=smInches;Dpi=96;Division=4;Grid=True;Zoom=1;CanvasW=100;CanvasH=100;configurationEnd;</desc>


<defs xmlns:inkscape ="http://www.inkscape.org/namespaces/inkscape" >

</defs>




<g inkscape:label = "delete_icon Default Layer" inkscape:groupmode = "layer" ><g id="group_6">
<path style="fill:Black;stroke:none; stroke-width:1" d="m280,-120q-33,0 -56.5,-23.5q-23.5,-23.5 -23.5,-56.5l0,-520l-40,0l0,-80l200,0l0,-40l240,0l0,40l200,0l0,80l-40,0l0,520q0,33 -23.5,56.5q-23.5,23.5 -56.5,23.5l-400,0zm400,-600l-400,0l0,520l400,0l0,-520zm-320,440l80,0l0,-360l-80,0l0,360zm160,0l80,0l0,-360l-80,0l0,360zm-240,-440l0,520l0,-520z" stroke-linecap = "round" transform = "matrix(0.09,0,0,0.09,6.799995,93.2)" vector-effect="non-scaling-stroke" pen = "1,1" />
</g>
</g>
</svg>
